<svg class="diagram-root" style="background: #f5f6f6" xmlns="http://www.w3.org/2000/svg" xmlns:xlink="http://www.w3.org/1999/xlink"><style>.diagram-root { font-family: "Helvetica Neue", sans-serif; font-size: 12px; } .t { overflow: visible; } .t-bg { y: 40; fill: #fff;   } .th { fill: #005aa0;   } .tht { fill: #fff; font-size: 14px;  } .tf { fill: #323c46; overflow: visible; } .tf.pk { fill: #005aa0; font-weight: bold; } .tf.fk { font-weight: bold; } .ty { fill: #adb1b5; font-weight: normal; text-anchor: end; } .r { fill: transparent; stroke: #c3c3c3; stroke-width: 1; } .l { stroke: 1; } .i { fill: #c2c7ce; stroke: #c2c7ce; } .i.ix { fill: #afb3b6; stroke: #000; } .fa { fill: transparent; overflow: visible; } .fa .bg.hover { fill: #f7f7f7; } .c { cy: 12; r: 4; stroke: #d2d2dc; fill: #d2d2dc; } .hr { fill: transparent; stroke: #323c46; stroke-opacity: 0.035; stroke-width: 13; } .dc { stroke: #fa5a3c; fill: #fa5a3c; } .x { stroke: white; stroke-width: 1; } .hl .th { fill: #1b9bff; } .hl .tht {  } .fhl .bg { fill: #e7f4ff; } .fhls .bg {  } .r.hl { stroke: #1b9bff; } .dim { opacity: 0.25; }</style><g class="drawing-wrapper" transform="translate(-11.335555555555558, 64.44666666666667) scale(1,1)"><g class="rs"><path d="M 490.17 35.77777777777778 m -1, 0 a 1,1 0 1,0 2,0 a 1,1 0 1,0 -2,0 M 490.17 35.77777777777778 m -0.5, 0 a 0.5,0.5 0 1,0 1,0 a 0.5,0.5 0 1,0 -1,0  M490.17 35.77777777777778 L490.17 35.77777777777778 502.17 35.77777777777778 M496.17 41.77777777777778 L496.17 41.77777777777778 496.17 29.77777777777778 M502.17 35.77777777777778 Q 530.83 35.77777777777778, 559.48 145.56 T 616.7877777777771 255.33666666666664 M 628.7877777777771 255.33666666666664 m -1, 0 a 1,1 0 1,0 2,0 a 1,1 0 1,0 -2,0 M 628.7877777777771 255.33666666666664 m -0.5, 0 a 0.5,0.5 0 1,0 1,0 a 0.5,0.5 0 1,0 -1,0  M628.7877777777771 255.33666666666664 L628.7877777777771 255.33666666666664 616.7877777777771 255.33666666666664 M622.7877777777771 261.33666666666664 L622.7877777777771 261.33666666666664 622.7877777777771 249.33666666666664" id="h1139284389" class="r"></path><path d="M 343.0011111111106 60.77777777777778 m -1, 0 a 1,1 0 1,0 2,0 a 1,1 0 1,0 -2,0 M 343.0011111111106 60.77777777777778 m -0.5, 0 a 0.5,0.5 0 1,0 1,0 a 0.5,0.5 0 1,0 -1,0  M343.0011111111106 60.77777777777778 L343.0011111111106 60.77777777777778 331.0011111111106 60.77777777777778 M 343.0011111111106 66.77777777777777 m -1, 0 a 1,1 0 1,0 2,0 a 1,1 0 1,0 -2,0 M 343.0011111111106 66.77777777777777 m -0.5, 0 a 0.5,0.5 0 1,0 1,0 a 0.5,0.5 0 1,0 -1,0  M343.0011111111106 66.77777777777777 L343.0011111111106 66.77777777777777 336.0011111111106 60.77777777777778 343.0011111111106 54.77777777777778 M 343.0011111111106 54.77777777777778 m -1, 0 a 1,1 0 1,0 2,0 a 1,1 0 1,0 -2,0 M 343.0011111111106 54.77777777777778 m -0.5, 0 a 0.5,0.5 0 1,0 1,0 a 0.5,0.5 0 1,0 -1,0  M331.0011111111106 60.77777777777778 Q 301.38 60.77777777777778, 271.76 41.67 T 212.51 22.553333333333327 M 200.51 22.553333333333327 m -1, 0 a 1,1 0 1,0 2,0 a 1,1 0 1,0 -2,0 M 200.51 22.553333333333327 m -0.5, 0 a 0.5,0.5 0 1,0 1,0 a 0.5,0.5 0 1,0 -1,0  M200.51 22.553333333333327 L200.51 22.553333333333327 212.51 22.553333333333327 M206.51 28.553333333333327 L206.51 28.553333333333327 206.51 16.553333333333327" id="h1607168654" class="r"></path><path d="M 221.5 319.22666666666663 m -1, 0 a 1,1 0 1,0 2,0 a 1,1 0 1,0 -2,0 M 221.5 319.22666666666663 m -0.5, 0 a 0.5,0.5 0 1,0 1,0 a 0.5,0.5 0 1,0 -1,0  M221.5 319.22666666666663 L221.5 319.22666666666663 233.5 319.22666666666663 M 221.5 325.22666666666663 m -1, 0 a 1,1 0 1,0 2,0 a 1,1 0 1,0 -2,0 M 221.5 325.22666666666663 m -0.5, 0 a 0.5,0.5 0 1,0 1,0 a 0.5,0.5 0 1,0 -1,0  M221.5 325.22666666666663 L221.5 325.22666666666663 228.5 319.22666666666663 221.5 313.22666666666663 M 221.5 313.22666666666663 m -1, 0 a 1,1 0 1,0 2,0 a 1,1 0 1,0 -2,0 M 221.5 313.22666666666663 m -0.5, 0 a 0.5,0.5 0 1,0 1,0 a 0.5,0.5 0 1,0 -1,0  M233.5 319.22666666666663 C 283.5 319.22666666666663, 296.094 22.553333333333327, 212.51 22.553333333333327 M 200.51 22.553333333333327 m -1, 0 a 1,1 0 1,0 2,0 a 1,1 0 1,0 -2,0 M 200.51 22.553333333333327 m -0.5, 0 a 0.5,0.5 0 1,0 1,0 a 0.5,0.5 0 1,0 -1,0  M200.51 22.553333333333327 L200.51 22.553333333333327 212.51 22.553333333333327 M206.51 28.553333333333327 L206.51 28.553333333333327 206.51 16.553333333333327" id="h1397587031" class="r"></path><path d="M 221.5 344.22666666666663 m -1, 0 a 1,1 0 1,0 2,0 a 1,1 0 1,0 -2,0 M 221.5 344.22666666666663 m -0.5, 0 a 0.5,0.5 0 1,0 1,0 a 0.5,0.5 0 1,0 -1,0  M221.5 344.22666666666663 L221.5 344.22666666666663 233.5 344.22666666666663 M227.5 350.22666666666663 L227.5 350.22666666666663 227.5 338.22666666666663 M233.5 344.22666666666663 Q 329.32 344.22666666666663, 425.14 299.78 T 616.7877777777771 255.33666666666664 M 628.7877777777771 255.33666666666664 m -1, 0 a 1,1 0 1,0 2,0 a 1,1 0 1,0 -2,0 M 628.7877777777771 255.33666666666664 m -0.5, 0 a 0.5,0.5 0 1,0 1,0 a 0.5,0.5 0 1,0 -1,0  M628.7877777777771 255.33666666666664 L628.7877777777771 255.33666666666664 616.7877777777771 255.33666666666664 M622.7877777777771 261.33666666666664 L622.7877777777771 261.33666666666664 622.7877777777771 249.33666666666664" id="h2286254435" class="r"></path><path d="M 797.29 280.33666666666664 m -1, 0 a 1,1 0 1,0 2,0 a 1,1 0 1,0 -2,0 M 797.29 280.33666666666664 m -0.5, 0 a 0.5,0.5 0 1,0 1,0 a 0.5,0.5 0 1,0 -1,0  M797.29 280.33666666666664 L797.29 280.33666666666664 809.29 280.33666666666664 M 797.29 286.33666666666664 m -1, 0 a 1,1 0 1,0 2,0 a 1,1 0 1,0 -2,0 M 797.29 286.33666666666664 m -0.5, 0 a 0.5,0.5 0 1,0 1,0 a 0.5,0.5 0 1,0 -1,0  M797.29 286.33666666666664 L797.29 286.33666666666664 804.29 280.33666666666664 797.29 274.33666666666664 M 797.29 274.33666666666664 m -1, 0 a 1,1 0 1,0 2,0 a 1,1 0 1,0 -2,0 M 797.29 274.33666666666664 m -0.5, 0 a 0.5,0.5 0 1,0 1,0 a 0.5,0.5 0 1,0 -1,0  M809.29 280.33666666666664 Q 843.03 280.33666666666664, 876.76 338.39 T 944.2266666666654 396.444444444445 M 956.2266666666654 396.444444444445 m -1, 0 a 1,1 0 1,0 2,0 a 1,1 0 1,0 -2,0 M 956.2266666666654 396.444444444445 m -0.5, 0 a 0.5,0.5 0 1,0 1,0 a 0.5,0.5 0 1,0 -1,0  M956.2266666666654 396.444444444445 L956.2266666666654 396.444444444445 944.2266666666654 396.444444444445 M950.2266666666654 402.444444444445 L950.2266666666654 402.444444444445 950.2266666666654 390.444444444445" id="h1537058300" class="r"></path><path d="M 193.92 495.78111111111156 m -1, 0 a 1,1 0 1,0 2,0 a 1,1 0 1,0 -2,0 M 193.92 495.78111111111156 m -0.5, 0 a 0.5,0.5 0 1,0 1,0 a 0.5,0.5 0 1,0 -1,0  M193.92 495.78111111111156 L193.92 495.78111111111156 205.92 495.78111111111156 M199.92 501.78111111111156 L199.92 501.78111111111156 199.92 489.78111111111156 M205.92 495.78111111111156 Q 308.64 495.78111111111156, 411.35 375.56 T 616.7877777777771 255.33666666666664 M 628.7877777777771 255.33666666666664 m -1, 0 a 1,1 0 1,0 2,0 a 1,1 0 1,0 -2,0 M 628.7877777777771 255.33666666666664 m -0.5, 0 a 0.5,0.5 0 1,0 1,0 a 0.5,0.5 0 1,0 -1,0  M628.7877777777771 255.33666666666664 L628.7877777777771 255.33666666666664 616.7877777777771 255.33666666666664 M622.7877777777771 261.33666666666664 L622.7877777777771 261.33666666666664 622.7877777777771 249.33666666666664" id="h3177548053" class="r"></path></g><g class="hrs"></g><g class="ts"><svg width="147.17" height="100" x="343.0011111111106" y="-21.22222222222222" id="h1090417462" class="t"><rect height="40" width="147.17" class="th"></rect><text x="13" y="25" class="tht">dept_emp</text><rect height="60" width="147.17" class="t-bg" y="40"></rect><text x="13" y="61" class="tf fk">emp_no<tspan x="134.17" class="ty">INTEGER</tspan></text><text x="13" y="86" class="tf fk">dept_no<tspan x="134.17" class="ty">VARCHAR</tspan></text></svg><svg width="168.5" height="225" x="628.7877777777771" y="198.33666666666664" id="h1639608377" class="t"><rect height="40" width="168.5" class="th"></rect><text x="13" y="25" class="tht">employees</text><rect height="185" width="168.5" class="t-bg" y="40"></rect><text x="13" y="61" class="tf pk">emp_no<tspan x="155.5" class="ty">INTEGER</tspan></text><path d="M7,14A2,2 0 0,1 5,12A2,2 0 0,1 7,10A2,2 0 0,1 9,12A2,2 0 0,1 7,14M12.65,10C11.83,7.67 9.61,6 7, 6A6, 6 0 0, 0 1, 12A6, 6 0 0, 0 7, 18C9.61, 18 11.83, 16.33 12.65, 14H17V18H21V14H23V10H12.65Z" class="i pk" transform="translate(82.162109375, 48) scale(0.65)"></path><text x="13" y="86" class="tf fk">emp_title_id<tspan x="155.5" class="ty">VARCHAR</tspan></text><text x="13" y="111" class="tf">birth_date<tspan x="155.5" class="ty">DATE</tspan></text><text x="13" y="136" class="tf">first_name<tspan x="155.5" class="ty">VARCHAR</tspan></text><text x="13" y="161" class="tf">last_name<tspan x="155.5" class="ty">VARCHAR</tspan></text><text x="13" y="186" class="tf">sex<tspan x="155.5" class="ty">VARCHAR</tspan></text><text x="13" y="211" class="tf">hire_date<tspan x="155.5" class="ty">DATE</tspan></text></svg><svg width="158.48" height="100" x="956.2266666666654" y="339.444444444445" id="h311790747" class="t"><rect height="40" width="158.48" class="th"></rect><text x="13" y="25" class="tht">titles</text><rect height="60" width="158.48" class="t-bg" y="40"></rect><text x="13" y="61" class="tf pk">title_id<tspan x="145.48" class="ty">VARCHAR</tspan></text><path d="M7,14A2,2 0 0,1 5,12A2,2 0 0,1 7,10A2,2 0 0,1 9,12A2,2 0 0,1 7,14M12.65,10C11.83,7.67 9.61,6 7, 6A6, 6 0 0, 0 1, 12A6, 6 0 0, 0 7, 18C9.61, 18 11.83, 16.33 12.65, 14H17V18H21V14H23V10H12.65Z" class="i pk" transform="translate(67.68898437499999, 48) scale(0.65)"></path><text x="13" y="86" class="tf">title<tspan x="145.48" class="ty">VARCHAR</tspan></text></svg><svg width="167.17" height="100" x="33.33555555555556" y="-34.44666666666667" id="h475896179" class="t"><rect height="40" width="167.17" class="th"></rect><text x="13" y="25" class="tht">departments</text><rect height="60" width="167.17" class="t-bg" y="40"></rect><text x="13" y="61" class="tf pk">dept_no<tspan x="154.17" class="ty">VARCHAR</tspan></text><path d="M7,14A2,2 0 0,1 5,12A2,2 0 0,1 7,10A2,2 0 0,1 9,12A2,2 0 0,1 7,14M12.65,10C11.83,7.67 9.61,6 7, 6A6, 6 0 0, 0 1, 12A6, 6 0 0, 0 7, 18C9.61, 18 11.83, 16.33 12.65, 14H17V18H21V14H23V10H12.65Z" class="i pk" transform="translate(76.37898437499999, 48) scale(0.65)"></path><text x="13" y="86" class="tf">dept_name<tspan x="154.17" class="ty">VARCHAR</tspan></text></svg><svg width="147.17" height="100" x="74.32999999999987" y="262.22666666666663" id="h1676682957" class="t"><rect height="40" width="147.17" class="th"></rect><text x="13" y="25" class="tht">dept_manager</text><rect height="60" width="147.17" class="t-bg" y="40"></rect><text x="13" y="61" class="tf fk">dept_no<tspan x="134.17" class="ty">VARCHAR</tspan></text><text x="13" y="86" class="tf fk">emp_no<tspan x="134.17" class="ty">INTEGER</tspan></text></svg><svg width="142.7" height="100" x="51.21777777777783" y="438.78111111111156" id="h2472833127" class="t"><rect height="40" width="142.7" class="th"></rect><text x="13" y="25" class="tht">salaries</text><rect height="60" width="142.7" class="t-bg" y="40"></rect><text x="13" y="61" class="tf fk">emp_no<tspan x="129.7" class="ty">INTEGER</tspan></text><text x="13" y="86" class="tf">salary<tspan x="129.7" class="ty">INTEGER</tspan></text></svg></g></g><text class="qdbd-link" x="10" y="20">www.quickdatabasediagrams.com</text></svg>